<svg width="40" height="40" viewBox="0 0 40 40" fill="none" xmlns="http://www.w3.org/2000/svg">
<path d="M29.6717 20.2265C29.5557 20.1079 29.4172 20.0136 29.2644 19.9491C29.1116 19.8846 28.9475 19.8511 28.7816 19.8507C28.6157 19.8502 28.4514 19.8828 28.2982 19.9465C28.145 20.0102 28.0061 20.1037 27.8894 20.2217C27.7728 20.3396 27.6808 20.4796 27.6188 20.6334C27.5568 20.7873 27.526 20.952 27.5283 21.1178C27.5306 21.2837 27.5658 21.4475 27.6321 21.5996C27.6983 21.7517 27.7941 21.8891 27.9139 22.0038C28.9744 23.0473 29.8158 24.2922 30.3887 25.6653C30.9616 27.0384 31.2544 28.5122 31.2501 30C31.2501 31.5289 26.8677 33.75 20.0001 33.75C13.1324 33.75 8.75006 31.5278 8.75006 29.9975C8.74585 28.5199 9.03477 27.0561 9.60011 25.6909C10.1654 24.3257 10.9959 23.0862 12.0436 22.0441C12.162 21.9286 12.2564 21.7907 12.3212 21.6384C12.386 21.4861 12.4199 21.3225 12.4209 21.157C12.422 20.9916 12.3902 20.8275 12.3273 20.6744C12.2645 20.5213 12.1718 20.3823 12.0548 20.2652C11.9378 20.1482 11.7987 20.0556 11.6456 19.9928C11.4926 19.9299 11.3285 19.8981 11.163 19.8991C10.9975 19.9002 10.8339 19.9341 10.6816 19.9989C10.5294 20.0636 10.3915 20.158 10.2759 20.2765C8.99521 21.5505 7.97994 23.0659 7.28889 24.7349C6.59784 26.404 6.24475 28.1936 6.25006 30C6.25006 34.0595 13.3338 36.25 20.0001 36.25C26.6663 36.25 33.7501 34.0595 33.7501 30C33.7556 28.1814 33.3977 26.38 32.6973 24.7016C31.997 23.0233 30.9683 21.5018 29.6717 20.2265Z" fill="white"/>
<path d="M20 21.25C21.7306 21.25 23.4223 20.7368 24.8612 19.7754C26.3002 18.8139 27.4217 17.4473 28.0839 15.8485C28.7462 14.2496 28.9195 12.4903 28.5819 10.793C28.2442 9.09563 27.4109 7.53653 26.1872 6.31282C24.9635 5.08911 23.4044 4.25575 21.707 3.91813C20.0097 3.58051 18.2504 3.75379 16.6515 4.41606C15.0527 5.07832 13.6861 6.19983 12.7246 7.63876C11.7632 9.07769 11.25 10.7694 11.25 12.5C11.2527 14.8198 12.1754 17.0439 13.8158 18.6842C15.4561 20.3246 17.6802 21.2473 20 21.25ZM20 6.25C21.2361 6.25 22.4445 6.61656 23.4723 7.30332C24.5001 7.99008 25.3012 8.96619 25.7742 10.1082C26.2473 11.2503 26.3711 12.5069 26.1299 13.7193C25.8887 14.9317 25.2935 16.0453 24.4194 16.9194C23.5453 17.7935 22.4317 18.3888 21.2193 18.6299C20.0069 18.8711 18.7503 18.7473 17.6082 18.2743C16.4662 17.8012 15.4901 17.0001 14.8033 15.9723C14.1166 14.9445 13.75 13.7361 13.75 12.5C13.752 10.843 14.4111 9.25442 15.5827 8.08274C16.7544 6.91106 18.343 6.25196 20 6.25Z" fill="white"/>
</svg>
