<svg width="40" height="40" viewBox="0 0 40 40" fill="currentColor" xmlns="http://www.w3.org/2000/svg">
<path d="M19.9998 35.3093C19.7725 35.3093 9.16685 35.3093 9.16685 35.3093C8.48169 35.3093 7.91044 34.989 7.63864 34.4524C7.36692 33.9159 7.44677 33.2658 7.85224 32.7134L9.21372 30.8638C6.32692 27.9969 4.69067 24.0955 4.69067 20C4.69067 11.5584 11.5583 4.6907 19.9998 4.6907C28.4415 4.6907 35.3093 11.5584 35.3093 20C35.3093 28.4416 28.4415 35.3093 19.9998 35.3093ZM19.9998 32.9656C27.1491 32.9656 32.9655 27.1493 32.9655 20C32.9655 12.8508 27.1491 7.03445 19.9998 7.03445C12.8507 7.03445 7.03442 12.8508 7.03442 20C7.03442 23.777 8.67771 27.3591 11.5429 29.8278L12.3651 30.5362L10.5768 32.9656H19.9998Z" fill="currentColor"/>
<path d="M15.9186 20C15.9186 20.9008 15.1884 21.6311 14.2876 21.6311C13.3866 21.6311 12.6562 20.9008 12.6562 20C12.6562 19.099 13.3866 18.3687 14.2876 18.3687C15.1884 18.3687 15.9186 19.0991 15.9186 20Z" fill="currentColor"/>
<path d="M20.0006 21.6311C20.9014 21.6311 21.6317 20.9008 21.6317 20C21.6317 19.0992 20.9014 18.3689 20.0006 18.3689C19.0998 18.3689 18.3695 19.0992 18.3695 20C18.3695 20.9008 19.0998 21.6311 20.0006 21.6311Z" fill="currentColor"/>
<path d="M25.7139 21.6312C26.6148 21.6312 27.3451 20.9009 27.3451 20C27.3451 19.0991 26.6148 18.3688 25.7139 18.3688C24.8131 18.3688 24.0828 19.0991 24.0828 20C24.0828 20.9009 24.8131 21.6312 25.7139 21.6312Z" fill="currentColor"/>
</svg>
