<svg width="30" height="30" viewBox="0 0 30 30" fill="currentColor" xmlns="http://www.w3.org/2000/svg">
<path d="M16.2335 28.3639C15.6414 28.6444 15.2341 28.74 15.0033 28.7468H15.0015H14.9397C14.7015 28.7274 14.3122 28.6259 13.7653 28.3666C13.1838 28.091 12.5027 27.6747 11.7557 27.1233C10.2625 26.0211 8.58294 24.4357 7.00756 22.5315C3.82768 18.688 1.25 13.7662 1.25 9.12657C1.25 4.80714 4.6003 1.25 8.06498 1.25C10.8279 1.25 12.8004 3.28705 13.9605 5.02429L15.0004 6.58159L16.0398 5.02395C17.197 3.28974 19.1695 1.25 21.9335 1.25C25.4011 1.25 28.75 4.807 28.75 9.12816C28.75 13.766 26.1721 18.687 22.9918 22.53C21.4162 24.4339 19.7365 26.0191 18.2432 27.121C17.4962 27.6723 16.815 28.0884 16.2335 28.3639Z" stroke="red" stroke-width="2.5"/>
</svg>
